<?xml version="1.0" encoding="UTF-8"?>
<svg xmlns="http://www.w3.org/2000/svg" xmlns:xlink="http://www.w3.org/1999/xlink" width="50px" height="50px" viewBox="0 0 50 50" version="1.1">
<g id="surface1">
<path style=" stroke:none;fill-rule:evenodd;fill:rgb(9.411765%,8.627451%,8.627451%);fill-opacity:1;" d="M 25 1.992188 C 11.976562 1.992188 1.410156 12.554688 1.410156 25.582031 C 1.410156 36.007812 8.171875 44.847656 17.542969 47.96875 C 18.71875 48.1875 19.15625 47.453125 19.15625 46.832031 C 19.15625 46.269531 19.132812 44.410156 19.121094 42.4375 C 12.558594 43.867188 11.171875 39.65625 11.171875 39.65625 C 10.101562 36.929688 8.554688 36.203125 8.554688 36.203125 C 6.414062 34.742188 8.71875 34.773438 8.71875 34.773438 C 11.085938 34.9375 12.332031 37.203125 12.332031 37.203125 C 14.4375 40.808594 17.851562 39.765625 19.195312 39.164062 C 19.40625 37.640625 20.019531 36.597656 20.695312 36.007812 C 15.453125 35.414062 9.945312 33.390625 9.945312 24.351562 C 9.945312 21.773438 10.867188 19.671875 12.378906 18.019531 C 12.132812 17.425781 11.328125 15.023438 12.605469 11.777344 C 12.605469 11.777344 14.585938 11.140625 19.09375 14.195312 C 20.976562 13.671875 22.992188 13.40625 25 13.398438 C 27.003906 13.40625 29.023438 13.671875 30.90625 14.195312 C 35.414062 11.140625 37.390625 11.773438 37.390625 11.773438 C 38.671875 15.023438 37.867188 17.421875 37.621094 18.015625 C 39.132812 19.671875 40.046875 21.773438 40.046875 24.351562 C 40.046875 33.410156 34.53125 35.40625 29.277344 35.992188 C 30.125 36.71875 30.878906 38.15625 30.878906 40.359375 C 30.878906 43.515625 30.851562 46.054688 30.851562 46.832031 C 30.851562 47.460938 31.273438 48.195312 32.46875 47.960938 C 41.835938 44.839844 48.589844 36 48.589844 25.582031 C 48.589844 12.554688 38.027344 1.992188 25 1.992188 Z M 25 1.992188 "/>
<path style=" stroke:none;fill-rule:nonzero;fill:rgb(9.411765%,8.627451%,8.627451%);fill-opacity:1;" d="M 10.34375 35.859375 C 10.292969 35.976562 10.109375 36.015625 9.941406 35.933594 C 9.769531 35.859375 9.671875 35.695312 9.726562 35.578125 C 9.78125 35.460938 9.964844 35.425781 10.132812 35.507812 C 10.304688 35.585938 10.40625 35.742188 10.34375 35.859375 Z M 11.300781 36.929688 C 11.1875 37.03125 10.96875 36.984375 10.820312 36.820312 C 10.664062 36.65625 10.636719 36.433594 10.75 36.328125 C 10.867188 36.226562 11.078125 36.273438 11.234375 36.4375 C 11.390625 36.601562 11.421875 36.820312 11.300781 36.929688 Z M 12.230469 38.285156 C 12.085938 38.386719 11.851562 38.292969 11.703125 38.082031 C 11.558594 37.875 11.558594 37.621094 11.707031 37.519531 C 11.851562 37.421875 12.085938 37.507812 12.234375 37.71875 C 12.378906 37.929688 12.378906 38.183594 12.230469 38.285156 Z M 13.507812 39.601562 C 13.375 39.742188 13.101562 39.703125 12.898438 39.507812 C 12.695312 39.320312 12.632812 39.046875 12.765625 38.90625 C 12.898438 38.765625 13.171875 38.804688 13.375 38.996094 C 13.582031 39.1875 13.644531 39.457031 13.507812 39.597656 Z M 15.265625 40.359375 C 15.203125 40.546875 14.941406 40.628906 14.671875 40.550781 C 14.40625 40.46875 14.234375 40.253906 14.289062 40.066406 C 14.34375 39.882812 14.609375 39.792969 14.875 39.875 C 15.144531 39.960938 15.320312 40.171875 15.265625 40.359375 Z M 17.195312 40.5 C 17.203125 40.695312 16.976562 40.859375 16.695312 40.859375 C 16.414062 40.867188 16.183594 40.710938 16.179688 40.519531 C 16.179688 40.320312 16.402344 40.164062 16.683594 40.15625 C 16.964844 40.152344 17.195312 40.308594 17.195312 40.5 Z M 18.992188 40.195312 C 19.023438 40.386719 18.828125 40.578125 18.550781 40.632812 C 18.277344 40.683594 18.023438 40.566406 17.988281 40.375 C 17.953125 40.183594 18.152344 39.988281 18.425781 39.9375 C 18.703125 39.890625 18.953125 40.003906 18.992188 40.195312 Z M 18.992188 40.195312 "/>
</g>
</svg>
