<?xml version="1.0" encoding="UTF-8"?>
<svg xmlns="http://www.w3.org/2000/svg" xmlns:xlink="http://www.w3.org/1999/xlink" width="100px" height="100px" viewBox="0 0 100 100" version="1.1">
<g id="surface1">
<path style=" stroke:none;fill-rule:nonzero;fill:rgb(0%,46.27451%,69.803922%);fill-opacity:1;" d="M 90.625 2.34375 L 9.375 2.34375 C 11.046875 0.335938 13.699219 -0.570312 16.25 0 L 16.25 81.578125 C -6.277344 81.578125 -24.539062 63.316406 -24.539062 40.789062 C -24.539062 18.261719 -6.277344 0 16.25 0 L 97.5 0 C 97.5 22.4375 79.3125 40.625 56.875 40.625 C 34.4375 40.625 16.25 22.4375 16.25 0 L 16.25 9.195312 C 14.335938 11.378906 11.265625 12.152344 8.546875 11.128906 C 5.828125 10.105469 4.027344 7.503906 4.027344 4.597656 C 4.027344 1.691406 5.828125 -0.910156 8.546875 -1.933594 C 11.265625 -2.957031 14.335938 -2.183594 16.25 0 Z M 90.625 2.34375 "/>
<path style=" stroke:none;fill-rule:nonzero;fill:rgb(100%,100%,100%);fill-opacity:1;" d="M 16.453125 38.070312 L 30.601562 38.070312 L 30.601562 83.59375 L 16.453125 83.59375 Z M 23.53125 15.414062 C 23.53125 10.882812 27.207031 7.210938 31.738281 7.210938 C 36.269531 7.210938 39.941406 10.886719 39.9375 15.417969 C 39.933594 19.949219 36.257812 23.621094 31.726562 23.617188 M 39.476562 38.070312 L 53.039062 38.070312 L 53.039062 44.320312 L 53.226562 44.320312 C 55.117188 40.742188 59.726562 36.96875 66.609375 36.96875 C 80.9375 36.9375 83.59375 46.367188 83.59375 58.59375 L 83.59375 83.59375 L 69.445312 83.59375 L 69.445312 61.445312 C 69.445312 56.171875 69.351562 49.382812 62.09375 49.382812 C 54.835938 49.382812 53.601562 55.132812 53.601562 61.101562 L 53.601562 83.59375 L 39.476562 83.59375 Z M 39.476562 38.070312 "/>
</g>
</svg>
